<svg width="1960" height="1702" viewBox="0 0 1960 1702" fill="none" xmlns="http://www.w3.org/2000/svg">
<path d="M369.537 407.034C263.509 323.427 141.616 343.528 93.9236 364.03L81.8749 369.031C71.0813 381.698 49.4941 411.434 49.4941 429.036C49.4941 451.038 36.6925 505.043 36.6925 575.049C36.6925 645.055 36.6925 702.56 49.4941 833.572C62.2958 964.583 64.555 945.081 64.555 1038.09C64.555 1131.1 36.6925 1140.6 36.6925 1223.61C36.6925 1306.61 -4.80852 1321.61 0.462768 1381.62C5.65255 1440.7 9.38245 1454.67 19.5576 1492.79L20.0418 1494.6C30.5844 1534.1 93.9236 1535.63 93.9236 1564.14C93.9236 1592.64 148.896 1604.14 191.819 1622.14C234.742 1640.14 351.464 1683.65 449.359 1698.65C547.254 1713.65 681.296 1675.15 811.572 1645.64C941.848 1616.14 766.389 1394.62 729.49 1381.62C692.591 1368.62 376.432 1142.11 538.971 1038.09C660.127 960.554 622.475 880.547 470.361 859.045C318.246 837.543 626.625 764.165 636.866 684.558C649.668 585.05 502.072 511.543 369.537 407.034Z" fill="#5BD8F3"/>
<path d="M1373.16 274.003C1324.95 194.849 1262.98 168.728 1238.03 165.562C1054.47 171.711 685.591 185.741 678.5 192.664C669.636 201.318 693.514 464.649 964.688 542.792C1235.86 620.935 1234.34 575.665 1271.69 580.652C1309.05 585.639 1433.43 372.945 1373.16 274.003Z" fill="#052830"/>
<path d="M1953.1 746.615C1921.54 801.294 1939.95 841.923 1953.1 855.403C1926.28 934.953 1872.63 1098.38 1872.63 1115.7C1872.63 1137.34 1677.5 1567.37 1439.24 1542.31C1200.97 1517.25 1031.61 1669.89 962.713 1686.98C893.812 1704.07 616.103 1503.58 610.317 1320.17C604.532 1136.77 328.927 1072.98 173.242 979C48.6935 903.817 5.98522 719.086 0.199628 636.118C-2.43019 558.466 19.8707 378.443 130.113 279.566C267.915 155.968 673.433 352.471 683.426 371.267C685.512 375.19 704.398 389.191 736.166 406.445C848.155 467.268 1120.23 568.522 1380.72 411.271C1400.31 399.442 1419.84 386.149 1439.24 371.267C1789.53 102.428 1775.85 473.79 1813.72 473.79C1851.59 473.79 1992.55 678.266 1953.1 746.615Z" fill="#2B9BB4"/>
<path d="M91.4914 1352.2C44.0111 1343.63 23.699 1355.37 16 1451.12V1461.07C32.6648 1477.09 73.5934 1511.13 103.99 1519.09C141.986 1529.04 166.983 1529.04 220.977 1532.9C274.97 1536.77 308.967 1552.8 375.459 1552.8C441.951 1552.8 488.946 1568.82 558.938 1576.56C628.93 1584.3 675.925 1594.25 720.419 1600.32C764.914 1606.4 812.409 1616.35 905.898 1616.35C999.388 1616.35 1104.64 1678.56 1231.36 1616.35C1364 1551.23 1390.02 1521.46 1452.34 1552.8C1506.31 1579.94 1560.32 1461.07 1574.82 1427.36C1589.32 1393.65 1524.09 1283.51 1560.32 1242.78C1624.9 1170.21 1520.33 1078.41 1394.84 1046.05C1323.95 1027.78 1134.7 1003.6 1029.88 1125.63C925.07 1247.66 969.891 1046.05 824.908 1163.21C679.924 1280.36 674.685 1182.17 558.938 1103.53C449.806 1063.1 310.174 1288.66 249.473 1298.6C188.772 1308.53 143.425 1212.56 91.4914 1352.2Z" fill="#052830"/>
</svg>
